PathFileType	4	(X/Y/Z)	c:/Users/goper/Files/vsCode/490R/osim_files/C03/C03_fast_06.trc
DataRate	CameraRate	NumFrames	NumMarkers	Units                	OrigDataRate	OrigDataStartFrame	OrigNumFrames
250.00	250.00	4	36	mm	250.0	1342	2147
                Frame#	Time	LPSIS			LASIS			LTH1			LTH2			LTH3			LTH4			LLFE			LMFE			LSH1			LSH2			LSH3			LSH4			LLMAL			LMMAL			LCAL			LMTP5			LTOE			LMTP1			RPSIS			RASIS			RTH1			RTH2			RTH3			RTH4			RLFE			RMFE			RSH1			RSH2			RSH3			RSH4			RLMAL			RMMAL			RCAL			RMTP1			RTOE			RMTP5		
		X1	Y1	Z1	X2	Y2	Z2	X3	Y3	Z3	X4	Y4	Z4	X5	Y5	Z5	X6	Y6	Z6	X7	Y7	Z7	X8	Y8	Z8	X9	Y9	Z9	X10	Y10	Z10	X11	Y11	Z11	X12	Y12	Z12	X13	Y13	Z13	X14	Y14	Z14	X15	Y15	Z15	X16	Y16	Z16	X17	Y17	Z17	X18	Y18	Z18	X19	Y19	Z19	X20	Y20	Z20	X21	Y21	Z21	X22	Y22	Z22	X23	Y23	Z23	X24	Y24	Z24	X25	Y25	Z25	X26	Y26	Z26	X27	Y27	Z27	X28	Y28	Z28	X29	Y29	Z29	X30	Y30	Z30	X31	Y31	Z31	X32	Y32	Z32	X33	Y33	Z33	X34	Y34	Z34	X35	Y35	Z35	X36	Y36	Z36

1342	5.36400	-289.70227	1018.85394	314.07349	-472.32629	967.02216	339.57761	-456.51910	617.37073	392.39908	-476.33661	559.76666	379.20102	-527.35889	639.70831	376.27942	-537.69238	579.51385	364.94656	-513.69202	483.36594	359.15973	-496.20468	482.00214	249.49454	-462.02158	295.79654	367.23599	-469.09726	250.54079	359.77310	-522.16302	303.96915	363.84677	-520.77100	256.06711	357.66190	-510.58301	97.15566	326.71219	-523.70471	110.12357	246.93265	-444.61188	62.54619	295.86334	-650.08313	52.56669	331.03665	-675.62030	71.83403	274.83795	-647.67230	55.68124	237.40579	-284.32361	999.16058	201.70654	-449.05850	949.29553	136.68005	-314.43741	572.18274	140.24937	-316.34967	510.46756	149.65547	-363.67352	571.73834	97.17604	-371.95667	510.55042	98.04905	-359.41470	440.72751	108.54751	-392.26208	444.92603	218.65845	-163.24876	402.59222	129.81834	-126.36959	373.06815	134.48277	-189.91856	351.41232	106.67016	-150.93886	332.51358	113.51645	-22.57717	252.92133	148.10384	-44.07505	239.61279	224.95016	25.04951	308.21732	189.25543	-14.02841	113.37957	242.87738	-31.74461	88.04124	203.31158	22.99415	121.95048	143.15334
1343	5.36800	-295.63217	1019.99915	314.49020	-478.17526	967.89368	339.80957	-459.25223	617.32507	392.09491	-478.58493	559.59259	378.83441	-530.08063	639.32123	376.71152	-540.19684	578.84875	365.16455	-515.51251	483.17804	359.23703	-498.67456	482.04892	249.28458	-462.21176	296.13333	366.25809	-469.08487	250.78658	358.90723	-522.52319	303.81897	363.78577	-521.20996	255.99374	357.52271	-510.95502	97.20831	326.39313	-523.93530	110.06108	246.64487	-444.62958	62.66701	295.79810	-650.19501	52.54593	330.95996	-675.73669	71.56356	274.76053	-647.77753	55.55083	237.26457	-290.19299	1000.53418	202.19185	-454.91882	950.91632	136.77068	-325.58670	572.84424	140.38289	-328.16708	511.15677	149.81384	-374.68378	572.91577	97.12158	-383.02930	511.70099	98.44134	-372.87097	441.79233	108.07012	-404.36588	446.51022	219.01791	-176.11266	404.46313	128.98045	-139.11632	375.06207	133.55243	-202.81990	352.99081	106.51385	-163.67621	334.20245	113.17886	-34.82252	254.66595	147.54227	-55.89099	241.84540	224.36354	14.40330	309.30853	188.32874	-26.90465	114.86236	242.41980	-46.17911	90.08428	202.81224	8.71560	123.02896	142.19792
1344	5.37200	-301.59970	1021.15564	314.99139	-483.91754	968.77063	339.99280	-461.92709	617.26447	391.75931	-480.81595	559.43793	378.37894	-532.81488	638.39044	376.75848	-542.72534	578.18579	365.11951	-517.20361	483.02191	359.21225	-501.21289	482.07938	249.14934	-462.37411	296.38763	365.29272	-469.11682	251.07745	358.03531	-522.53583	303.73907	363.61929	-520.89508	255.93469	357.37137	-511.35159	97.19615	326.09958	-524.14429	110.02585	246.31085	-444.65958	62.76759	295.69574	-650.29675	52.50299	330.93777	-675.86359	71.32094	274.72632	-647.86163	55.43303	237.19180	-295.98108	1002.03088	202.64658	-460.34143	952.52661	137.08658	-336.69955	573.61328	140.45062	-340.00751	511.99426	149.96162	-385.99713	574.18005	97.51633	-395.17789	513.09589	98.69761	-385.01761	443.04211	108.73211	-416.45529	448.32245	219.50131	-188.99121	406.28943	128.28041	-151.93535	376.98746	132.76527	-215.81415	354.57584	106.49172	-176.50157	335.99265	112.93941	-47.27587	256.11279	146.99898	-67.92222	243.94254	223.82811	3.44853	310.13339	187.28230	-40.83914	116.32691	241.79025	-60.74632	91.86147	202.30826	-5.74901	124.00314	141.22298
1345	5.37600	-307.50848	1022.35272	315.57132	-489.72504	969.62750	340.16666	-464.44000	617.22211	391.47208	-482.85678	559.26868	377.92651	-535.94849	637.50800	377.11533	-544.97186	577.36908	365.19705	-519.04626	482.84747	359.04797	-503.46848	482.04944	248.95438	-462.41919	296.80911	364.36261	-469.26926	251.30151	356.91000	-523.21405	303.71793	363.56293	-520.91644	255.89322	357.20905	-511.62717	97.25346	325.81641	-524.38068	109.99004	246.00818	-444.69577	62.86583	295.62250	-650.37152	52.46621	330.92816	-675.96661	71.14783	274.75024	-647.97314	55.32403	237.18614	-301.86670	1003.50299	203.27039	-466.61093	954.40662	136.88298	-347.73233	574.39368	140.51016	-351.75006	512.88116	150.14038	-396.79910	575.63800	97.51183	-406.98138	514.57434	98.85666	-397.16415	444.38565	109.33737	-428.55283	450.26550	220.00301	-201.81429	408.14557	127.69232	-164.68344	378.97534	132.12877	-228.74089	356.22842	106.43624	-189.28278	337.76398	112.68266	-59.85090	257.41702	146.45599	-80.12162	245.75568	223.29742	-7.84157	310.61743	186.33456	-54.71909	117.63526	241.27942	-76.18321	93.34715	201.33804	-20.47276	124.72910	140.30148
